<?xml version="1.0" encoding="utf-8"?>
<!-- Generator: Adobe Illustrator 14.0.0, SVG Export Plug-In . SVG Version: 6.00 Build 43363)  -->
<!DOCTYPE svg PUBLIC "-//W3C//DTD SVG 1.1//EN" "http://www.w3.org/Graphics/SVG/1.1/DTD/svg11.dtd">
<svg version="1.1" id="Layer_1" xmlns="http://www.w3.org/2000/svg" xmlns:xlink="http://www.w3.org/1999/xlink" x="0px" y="0px"
	 width="960px" height="560px" viewBox="0 0 960 560" enable-background="new 0 0 960 560" xml:space="preserve">
<line fill="#4D4D4D" x1="816.196" y1="500.006" x2="149.535" y2="321.375"/>
<line fill="none" stroke="#4D4D4D" stroke-width="5.521" stroke-miterlimit="10" x1="816.196" y1="500.006" x2="149.535" y2="321.375"/>
<line fill="#4D4D4D" x1="766.85" y1="487.153" x2="814.816" y2="471.383"/>
<line fill="none" stroke="#4D4D4D" stroke-width="5.521" stroke-miterlimit="10" x1="766.85" y1="487.153" x2="814.816" y2="471.383"/>
<line fill="#4D4D4D" x1="751.666" y1="483.012" x2="799.632" y2="467.242"/>
<line fill="none" stroke="#4D4D4D" stroke-width="5.521" stroke-miterlimit="10" x1="751.666" y1="483.012" x2="799.632" y2="467.242"/>
<line fill="#4D4D4D" x1="782.034" y1="491.294" x2="830" y2="475.524"/>
<line fill="none" stroke="#4D4D4D" stroke-width="5.521" stroke-miterlimit="10" x1="782.034" y1="491.294" x2="830" y2="475.524"/>
<line fill="#4D4D4D" x1="736.482" y1="478.871" x2="784.448" y2="463.101"/>
<line fill="none" stroke="#4D4D4D" stroke-width="5.521" stroke-miterlimit="10" x1="736.482" y1="478.871" x2="784.448" y2="463.101"/>
<line fill="#4D4D4D" x1="784.176" y1="520.241" x2="750.521" y2="482.602"/>
<line fill="none" stroke="#4D4D4D" stroke-width="5.521" stroke-miterlimit="10" x1="784.176" y1="520.241" x2="750.521" y2="482.602"/>
<line fill="#4D4D4D" x1="799.396" y1="524.247" x2="765.741" y2="486.607"/>
<line fill="none" stroke="#4D4D4D" stroke-width="5.521" stroke-miterlimit="10" x1="799.396" y1="524.247" x2="765.741" y2="486.607"/>
<line fill="#4D4D4D" x1="768.956" y1="516.236" x2="735.301" y2="478.596"/>
<line fill="none" stroke="#4D4D4D" stroke-width="5.521" stroke-miterlimit="10" x1="768.956" y1="516.236" x2="735.301" y2="478.596"/>
<line fill="#4D4D4D" x1="814.617" y1="528.253" x2="780.962" y2="490.613"/>
<line fill="none" stroke="#4D4D4D" stroke-width="5.521" stroke-miterlimit="10" x1="814.617" y1="528.253" x2="780.962" y2="490.613"/>
<polygon fill="#4D4D4D" points="153.512,314.285 130,315.909 149.55,329.071 "/>
<polygon fill="none" stroke="#4D4D4D" stroke-width="8.282" stroke-miterlimit="10" points="153.512,314.285 130,315.909 
	149.55,329.071 "/>
<line fill="#4D4D4D" x1="143.804" y1="500.006" x2="810.465" y2="321.375"/>
<line fill="none" stroke="#4D4D4D" stroke-width="5.521" stroke-miterlimit="10" x1="143.804" y1="500.006" x2="810.465" y2="321.375"/>
<line fill="#4D4D4D" x1="193.15" y1="487.153" x2="145.184" y2="471.383"/>
<line fill="none" stroke="#4D4D4D" stroke-width="5.521" stroke-miterlimit="10" x1="193.15" y1="487.153" x2="145.184" y2="471.383"/>
<line fill="#4D4D4D" x1="208.334" y1="483.012" x2="160.368" y2="467.242"/>
<line fill="none" stroke="#4D4D4D" stroke-width="5.521" stroke-miterlimit="10" x1="208.334" y1="483.012" x2="160.368" y2="467.242"/>
<line fill="#4D4D4D" x1="177.966" y1="491.294" x2="130" y2="475.524"/>
<line fill="none" stroke="#4D4D4D" stroke-width="5.521" stroke-miterlimit="10" x1="177.966" y1="491.294" x2="130" y2="475.524"/>
<line fill="#4D4D4D" x1="223.518" y1="478.871" x2="175.552" y2="463.101"/>
<line fill="none" stroke="#4D4D4D" stroke-width="5.521" stroke-miterlimit="10" x1="223.518" y1="478.871" x2="175.552" y2="463.101"/>
<line fill="#4D4D4D" x1="175.824" y1="520.241" x2="209.479" y2="482.602"/>
<line fill="none" stroke="#4D4D4D" stroke-width="5.521" stroke-miterlimit="10" x1="175.824" y1="520.241" x2="209.479" y2="482.602"/>
<line fill="#4D4D4D" x1="160.604" y1="524.247" x2="194.258" y2="486.607"/>
<line fill="none" stroke="#4D4D4D" stroke-width="5.521" stroke-miterlimit="10" x1="160.604" y1="524.247" x2="194.258" y2="486.607"/>
<line fill="#4D4D4D" x1="191.044" y1="516.236" x2="224.699" y2="478.596"/>
<line fill="none" stroke="#4D4D4D" stroke-width="5.521" stroke-miterlimit="10" x1="191.044" y1="516.236" x2="224.699" y2="478.596"/>
<line fill="#4D4D4D" x1="145.383" y1="528.253" x2="179.038" y2="490.613"/>
<line fill="none" stroke="#4D4D4D" stroke-width="5.521" stroke-miterlimit="10" x1="145.383" y1="528.253" x2="179.038" y2="490.613"/>
<polygon fill="#4D4D4D" points="806.488,314.285 830,315.909 810.45,329.071 "/>
<polygon fill="none" stroke="#4D4D4D" stroke-width="8.282" stroke-miterlimit="10" points="806.488,314.285 830,315.909 
	810.45,329.071 "/>
<g>
	<defs>
		<rect id="SVGID_1_" width="960" height="560"/>
	</defs>
	<clipPath id="SVGID_2_">
		<use xlink:href="#SVGID_1_"  overflow="visible"/>
	</clipPath>
	<g clip-path="url(#SVGID_2_)">
		<text transform="matrix(1 0 0 1 334.6748 529.7188)"><tspan x="0" y="0" fill="#4D4D4D" font-family="'IowanOldStyle-Roman'" font-size="66.2571" letter-spacing="13">M</tspan><tspan x="73.489" y="0" fill="#4D4D4D" font-family="'IowanOldStyle-Roman'" font-size="66.2571" letter-spacing="13">EDI</tspan><tspan x="229.484" y="0" fill="#4D4D4D" font-family="'IowanOldStyle-Roman'" font-size="66.2571">A</tspan></text>
	</g>
	<path clip-path="url(#SVGID_2_)" fill="none" stroke="#4D4D4D" stroke-miterlimit="10" d="M361.45,510.922
		c-7.303-16.197-10.955-25.256-10.955-27.176v-0.193c-0.345,0-0.853,0.021-1.521,0.064c-2.114,0.129-3.548,0.194-4.303,0.194
		c-0.992,0-2.739-0.076-5.241-0.227c-0.388-0.021-0.668-0.032-0.841-0.032v2.231h0.518c1.833,0,3.078,0.271,3.737,0.81
		c0.657,0.539,0.986,1.488,0.986,2.847c0,1.057-0.291,5.457-0.873,13.199v0.098l-0.583,7.83c-0.086,1.013-0.183,2.383-0.291,4.107
		c-0.431,6.276-0.852,9.857-1.261,10.741c-0.346,0.755-0.82,1.283-1.424,1.585c-0.604,0.303-1.521,0.453-2.75,0.453h-0.906v2.265
		c1.467-0.086,2.842-0.15,4.125-0.193c1.283-0.044,2.356-0.065,3.219-0.065c1.208,0,2.453,0.021,3.737,0.065
		c1.283,0.043,2.626,0.107,4.028,0.193v-2.265h-0.68c-1.898,0-3.154-0.285-3.769-0.857c-0.615-0.57-0.922-2.227-0.922-4.966v-0.323
		c0-2.523,0.302-8.789,0.906-18.797c0.237-4.033,0.42-7.203,0.55-9.512l13.038,29.537l0.129,0.292
		c1.208,2.761,1.963,4.81,2.265,6.146h2.135c0.496-2.415,1.262-4.691,2.297-6.826c0.065-0.15,0.108-0.247,0.129-0.291l13.265-30.508
		l1.262,27.822c0.043,0.733,0.075,1.445,0.097,2.136c0.021,0.69,0.032,1.391,0.032,2.103c0,1.532-0.318,2.588-0.954,3.171
		c-0.637,0.582-1.775,0.873-3.413,0.873c-0.13,0-0.346-0.011-0.647-0.032c-0.303-0.021-0.55-0.032-0.745-0.032v2.329
		c1.618-0.086,3.138-0.15,4.559-0.193c1.421-0.044,2.701-0.065,3.837-0.065c0.964,0,2.179,0.021,3.643,0.065
		c1.464,0.043,3.048,0.107,4.752,0.193v-2.265h-0.809c-1.078,0-1.952-0.173-2.62-0.518c-0.669-0.345-1.068-0.83-1.197-1.456
		c-0.259-1.057-0.626-5.618-1.1-13.685l-0.032-0.874l-0.55-9.091c-0.13-2.609-0.237-5.035-0.323-7.279
		c-0.087-2.243-0.13-3.688-0.13-4.335c0-1.66,0.35-2.814,1.051-3.462c0.701-0.646,1.99-0.971,3.866-0.971h0.388v-2.231
		c-1.186,0.064-2.275,0.112-3.267,0.146c-0.992,0.032-1.865,0.048-2.62,0.048c-0.797,0-1.708-0.016-2.731-0.048
		c-1.024-0.033-2.172-0.081-3.444-0.146c0,0.043,0.011,0.107,0.033,0.193c0.021,0.087,0.032,0.151,0.032,0.194
		c0,1.272-1.541,5.393-4.623,12.358l-0.388,0.874l-9.342,21.223L361.45,510.922z"/>
	<path clip-path="url(#SVGID_2_)" fill="none" stroke="#4D4D4D" stroke-miterlimit="10" d="M411.401,485.72h0.259
		c1.768,0,2.997,0.356,3.688,1.067c0.69,0.712,1.035,1.995,1.035,3.851c0,2.092-0.005,4.033-0.016,5.823
		c-0.011,1.79-0.027,3.635-0.049,5.532l-0.129,8.831c-0.021,1.145-0.043,2.729-0.064,4.757c-0.044,8.066-1.5,12.1-4.368,12.1
		c-0.281,0-0.491-0.005-0.631-0.017c-0.141-0.011-0.286-0.026-0.436-0.049v2.104l1.164-0.032c7.139-0.238,12.315-0.356,15.529-0.356
		c2.351,0,4.982,0.033,7.894,0.098s6.061,0.161,9.447,0.291c0.366-1.703,0.798-3.418,1.294-5.145
		c0.496-1.725,1.068-3.482,1.715-5.272l-2.33-0.776c-1.014,2.976-2.377,4.987-4.092,6.033c-1.715,1.046-5.279,1.569-10.693,1.569
		c-1.639,0-3.143-0.032-4.513-0.098c-1.37-0.064-2.594-0.161-3.672-0.291c-0.065-2.07-0.108-3.877-0.129-5.419
		c-0.022-1.542-0.032-3.024-0.032-4.448c0-0.819,0.01-2.162,0.032-4.028c0.021-1.865,0.032-3.326,0.032-4.383h2.33h5.758
		c3.925,0,6.422,0.323,7.49,0.97c1.067,0.647,1.601,1.888,1.601,3.721v0.259l2.103-0.064c-0.022-0.345-0.054-0.852-0.097-1.521
		c-0.108-1.854-0.162-3.062-0.162-3.622c0-0.971,0.038-2.027,0.113-3.171c0.075-1.143,0.189-2.383,0.34-3.721l-2.038-0.195
		c-0.086,1.576-0.631,2.654-1.634,3.236c-1.003,0.583-3.068,0.874-6.196,0.874c-0.647,0-1.924-0.017-3.833-0.049
		c-1.909-0.032-3.5-0.049-4.772-0.049h-1.003c0.022-1.121,0.075-3.559,0.162-7.312c0.086-3.753,0.151-6.923,0.194-9.512
		c0.302,0,0.776-0.01,1.423-0.032c3.214-0.064,5.425-0.097,6.633-0.097c4.723,0,7.797,0.458,9.22,1.375
		c1.424,0.917,2.221,2.669,2.394,5.257l2.168-0.193c-0.151-1.704-0.281-3.402-0.389-5.096c-0.108-1.694-0.173-3.349-0.194-4.966
		c-2.523,0.129-5.009,0.226-7.457,0.291c-2.448,0.063-4.869,0.097-7.263,0.097c-2.157,0-4.723-0.033-7.7-0.097
		c-2.976-0.065-6.352-0.162-10.126-0.291V485.72z"/>
	<path clip-path="url(#SVGID_2_)" fill="none" stroke="#4D4D4D" stroke-miterlimit="10" d="M477.386,517.003
		c0-3.018,0.027-6.793,0.081-11.322c0.054-4.529,0.145-10.72,0.275-18.569c1.38-0.194,2.728-0.34,4.044-0.438
		c1.315-0.097,2.609-0.146,3.883-0.146c6.21,0,11.064,1.866,14.559,5.598c3.493,3.731,5.24,8.886,5.24,15.464
		c0,6.169-1.623,10.913-4.868,14.235c-3.247,3.321-7.91,4.981-13.993,4.981c-1.531,0-3.057-0.08-4.577-0.242
		s-3.069-0.415-4.643-0.761V517.003z M470.107,529.524c1.272-0.043,2.351-0.064,3.235-0.064c1.876,0,4.324,0.085,7.344,0.259
		c3.02,0.173,5.101,0.259,6.244,0.259c7.741,0,13.928-2.194,18.554-6.584c4.626-4.389,6.939-10.185,6.939-17.389
		c0-7.01-2.308-12.553-6.923-16.629c-4.616-4.077-10.936-6.115-18.959-6.115c-0.497,0-2.173,0.093-5.03,0.275
		c-2.858,0.184-5.473,0.275-7.845,0.275c-0.82,0-1.839-0.027-3.058-0.081c-1.218-0.054-2.539-0.113-3.963-0.178v2.231h0.259
		c1.768,0,2.997,0.356,3.688,1.068c0.69,0.711,1.036,1.995,1.036,3.85c0,2.265-0.006,4.276-0.017,6.033
		c-0.011,1.759-0.027,3.564-0.048,5.419l-0.13,8.606c-0.021,1.144-0.043,2.729-0.064,4.756c-0.044,8.002-1.5,12.002-4.368,12.002
		c-0.281,0-0.497-0.005-0.647-0.016c-0.151-0.011-0.291-0.017-0.42-0.017v2.232C467.443,529.633,468.834,529.568,470.107,529.524z"
		/>
	<path clip-path="url(#SVGID_2_)" fill="none" stroke="#4D4D4D" stroke-miterlimit="10" d="M530.916,485.752h0.582
		c1.424,0,2.475,0.162,3.154,0.486c0.68,0.323,1.148,0.863,1.407,1.618c0.194,0.562,0.334,1.561,0.421,2.995
		c0.086,1.436,0.129,3.848,0.129,7.236v12.659v5.116c0,3.475-0.06,5.876-0.178,7.203c-0.119,1.328-0.329,2.283-0.631,2.866
		c-0.281,0.54-0.776,0.928-1.488,1.166c-0.712,0.237-1.736,0.355-3.073,0.355h-0.647v2.265c1.726-0.086,3.376-0.15,4.95-0.194
		c1.574-0.043,2.987-0.064,4.238-0.064c1.057,0,2.372,0.021,3.947,0.064c1.574,0.044,3.288,0.108,5.144,0.194v-2.265h-0.68
		c-1.315,0-2.336-0.118-3.057-0.355c-0.723-0.238-1.225-0.626-1.505-1.166c-0.259-0.496-0.447-1.263-0.565-2.299
		c-0.119-1.036-0.179-2.827-0.179-5.375v-16.124v-6.442c0-2.503,0.038-4.312,0.113-5.424c0.075-1.111,0.199-1.916,0.372-2.412
		c0.28-0.755,0.771-1.295,1.473-1.618c0.7-0.324,1.752-0.486,3.154-0.486h0.55v-2.199c-1.661,0.086-3.235,0.15-4.724,0.193
		c-1.488,0.044-2.836,0.065-4.044,0.065c-1.425,0-2.879-0.021-4.367-0.065c-1.488-0.043-2.988-0.107-4.497-0.193V485.752z"/>
	<path clip-path="url(#SVGID_2_)" fill="none" stroke="#4D4D4D" stroke-miterlimit="10" d="M575.63,508.563
		c-3.073,7.586-5.215,12.643-6.421,15.167c-0.67,1.339-1.452,2.294-2.347,2.866c-0.896,0.571-2.108,0.879-3.64,0.922v2.2
		c1.51-0.086,2.912-0.15,4.206-0.194c1.294-0.043,2.372-0.064,3.235-0.064c1.078,0,2.302,0.021,3.672,0.064
		c1.369,0.044,2.841,0.108,4.416,0.194v-2.232h-0.874c-1.445,0-2.448-0.21-3.009-0.632s-0.841-1.161-0.841-2.221
		c0-0.757,0.28-2.021,0.841-3.794s1.606-4.593,3.139-8.463c1.401-0.042,2.755-0.068,4.06-0.08c1.305-0.011,2.69-0.016,4.157-0.016
		c0.734,0,2.395,0.032,4.982,0.096c1.424,0.022,2.545,0.033,3.365,0.033l3.17,9.921c0.194,0.584,0.334,1.087,0.421,1.508
		c0.087,0.422,0.13,0.805,0.13,1.151c0,0.951-0.281,1.604-0.842,1.961c-0.562,0.357-1.607,0.535-3.138,0.535h-0.615v2.232
		c1.618-0.086,3.148-0.15,4.595-0.194c1.444-0.043,2.771-0.064,3.979-0.064c0.949,0,2.119,0.021,3.511,0.064
		c1.391,0.044,2.929,0.108,4.609,0.194v-2.232h-0.646c-1.165,0-2.06-0.237-2.686-0.712s-1.37-1.737-2.232-3.788
		c-1.445-3.562-3.424-8.882-5.937-15.961c-2.513-7.08-5.171-14.904-7.975-23.473h-5.564
		C581.943,492.64,578.703,500.977,575.63,508.563z M593.439,508.981c-0.323,0-0.798,0.011-1.424,0.032
		c-2.825,0.064-4.777,0.097-5.855,0.097c-0.885,0-2.545-0.032-4.982-0.097c-0.776-0.021-1.369-0.032-1.779-0.032l7.409-19.347
		L593.439,508.981z"/>
</g>
<text transform="matrix(0.8655 -0.501 0.501 0.8655 234.1367 156.6221)" fill="#4D4D4D" font-family="'Futura-Medium'" font-size="99.3858">S</text>
<g>
	<defs>
		<rect id="SVGID_3_" width="960" height="560"/>
	</defs>
	<clipPath id="SVGID_4_">
		<use xlink:href="#SVGID_3_"  overflow="visible"/>
	</clipPath>
	<path clip-path="url(#SVGID_4_)" fill="none" stroke="#4D4D4D" stroke-miterlimit="10" d="M222.792,74.932
		c-5.544,3.209-9.223,7.542-11.035,13c-1.829,5.428-1.335,10.577,1.483,15.445c4.179,7.219,11.791,10.135,22.837,8.746l7.764-1.021
		c2.029-0.24,3.855-0.315,5.476-0.227c1.621,0.089,3.058,0.359,4.31,0.811c1.251,0.452,2.356,1.101,3.314,1.948
		c0.957,0.847,1.801,1.9,2.529,3.158c1.815,3.135,2.305,6.306,1.471,9.515s-2.777,5.698-5.829,7.464
		c-3.864,2.237-7.614,2.538-11.251,0.905c-1.963-0.807-4.271-2.985-6.923-6.535l-8.647,7.922c4.397,5.53,9.369,8.921,14.917,10.175
		c5.605,1.224,11.222,0.207,16.85-3.051c5.936-3.435,9.771-8.273,11.505-14.514c1.72-6.196,0.854-12.278-2.601-18.247
		c-2.578-4.454-5.974-7.511-10.186-9.169c-4.212-1.658-9.566-2.029-16.063-1.112l-8,1.096c-5.823,0.79-9.651-0.398-11.484-3.565
		c-1.33-2.297-1.537-4.721-0.621-7.272c0.9-2.577,2.708-4.654,5.424-6.226c2.212-1.28,4.277-1.877,6.196-1.792
		c1.798,0.006,4.184,0.868,7.159,2.585l5.216-9.299C238.206,70.851,230.269,70.604,222.792,74.932z"/>
</g>
<text transform="matrix(0.956 -0.2934 0.2934 0.956 287.8096 126.1992)" fill="#4D4D4D" font-family="'Futura-Medium'" font-size="99.3857">C</text>
<g>
	<defs>
		<rect id="SVGID_5_" width="960" height="560"/>
	</defs>
	<clipPath id="SVGID_6_">
		<use xlink:href="#SVGID_5_"  overflow="visible"/>
	</clipPath>
	<path clip-path="url(#SVGID_6_)" fill="none" stroke="#4D4D4D" stroke-miterlimit="10" d="M308.267,40.021
		c-11.784,3.617-20.044,10.94-24.781,21.971c-3.838,8.995-4.357,18.055-1.557,27.179c3.123,10.176,9.392,17.761,18.811,22.755
		c9.429,4.924,19.263,5.814,29.5,2.673c6.804-2.089,12.76-5.837,17.869-11.246l-4.008-13.06c-1.307,2.026-2.596,3.81-3.866,5.35
		c-1.27,1.541-2.552,2.848-3.847,3.921c-2.281,2.054-5.322,3.665-9.126,4.832c-7.362,2.259-14.37,1.584-21.028-2.024
		c-6.658-3.608-11.139-9.171-13.446-16.686c-2.335-7.609-1.773-14.819,1.686-21.635c3.418-6.835,8.807-11.383,16.168-13.642
		c6.681-2.05,13.947-1.42,21.799,1.889l-3.923-12.782C321.45,37.879,314.7,38.047,308.267,40.021z"/>
	<g clip-path="url(#SVGID_6_)">
		
			<text transform="matrix(0.992 -0.1264 0.1264 0.992 358.2559 104.5312)" fill="#4D4D4D" font-family="'Futura-Medium'" font-size="99.3857">O</text>
	</g>
	<path clip-path="url(#SVGID_6_)" fill="none" stroke="#4D4D4D" stroke-miterlimit="10" d="M375.482,44.311
		c4.64-6.066,10.828-9.592,18.563-10.578c7.766-0.989,14.624,0.874,20.574,5.591c5.977,4.681,9.471,10.981,10.48,18.9
		c0.997,7.824-0.837,14.803-5.502,20.937c-4.673,6.069-10.909,9.601-18.708,10.595c-7.189,0.916-13.863-0.922-20.025-5.513
		c-6.195-4.588-9.814-10.985-10.86-19.195C369.007,57.225,370.833,50.312,375.482,44.311z M374.968,93.646
		c8.484,5.67,17.524,7.894,27.121,6.671c10.846-1.382,19.629-6.3,26.346-14.755c6.689-8.419,9.354-17.972,7.992-28.659
		c-1.354-10.622-6.315-19.236-14.887-25.841c-8.539-6.609-18.103-9.239-28.694-7.889c-10.719,1.366-19.42,6.29-26.1,14.773
		c-6.714,8.487-9.403,17.962-8.07,28.424C360.193,78.275,365.623,87.369,374.968,93.646z"/>
	<g clip-path="url(#SVGID_6_)">
		
			<text transform="matrix(0.9999 -0.0102 0.0102 0.9999 449.4575 94.3721)" fill="#4D4D4D" font-family="'Futura-Medium'" font-size="99.3857">T</text>
	</g>
</g>
<polygon fill="none" stroke="#4D4D4D" stroke-miterlimit="10" points="495.631,29.6 495.523,18.973 449.812,19.437 449.92,30.063 
	467.147,29.89 467.8,94.186 479.107,94.071 478.453,29.774 "/>
<g>
	<defs>
		<rect id="SVGID_7_" width="960" height="560"/>
	</defs>
	<clipPath id="SVGID_8_">
		<use xlink:href="#SVGID_7_"  overflow="visible"/>
	</clipPath>
	<g clip-path="url(#SVGID_8_)">
		
			<text transform="matrix(0.9966 0.0828 -0.0828 0.9966 508.1855 94.2451)" fill="#4D4D4D" font-family="'Futura-Medium'" font-size="99.3857">T</text>
	</g>
</g>
<polygon fill="none" stroke="#4D4D4D" stroke-miterlimit="10" points="560.179,34.044 561.059,23.453 515.502,19.668 
	514.622,30.258 531.79,31.685 526.466,95.764 537.734,96.7 543.059,32.621 "/>
<g>
	<defs>
		<rect id="SVGID_9_" width="960" height="560"/>
	</defs>
	<clipPath id="SVGID_10_">
		<use xlink:href="#SVGID_9_"  overflow="visible"/>
	</clipPath>
	<g clip-path="url(#SVGID_10_)">
		
			<text transform="matrix(0.9869 0.1613 -0.1613 0.9869 562.585 99.3652)" fill="#4D4D4D" font-family="'Futura-Medium'" font-size="99.3857">I</text>
	</g>
</g>
<rect x="545.605" y="59.1" transform="matrix(0.1613 -0.9869 0.9869 0.1613 425.0989 629.7379)" fill="none" stroke="#4D4D4D" stroke-miterlimit="10" width="74.928" height="11.307"/>
<text transform="matrix(0.9653 0.2611 -0.2611 0.9653 597.5352 104.5547)" fill="#4D4D4D" font-family="'Futura-Medium'" font-size="99.3858">S</text>
<g>
	<defs>
		<rect id="SVGID_11_" width="960" height="560"/>
	</defs>
	<clipPath id="SVGID_12_">
		<use xlink:href="#SVGID_11_"  overflow="visible"/>
	</clipPath>
	<path clip-path="url(#SVGID_12_)" fill="none" stroke="#4D4D4D" stroke-miterlimit="10" d="M647.505,38.943
		c-6.184-1.672-11.851-1.229-17,1.331c-5.142,2.527-8.446,6.506-9.914,11.936c-2.178,8.052,1.117,15.507,9.887,22.367l6.195,4.79
		c1.6,1.27,2.939,2.512,4.021,3.724c1.078,1.213,1.899,2.423,2.461,3.63s0.879,2.448,0.953,3.724s-0.08,2.617-0.459,4.02
		c-0.945,3.496-2.851,6.079-5.715,7.749c-2.865,1.669-5.999,2.044-9.403,1.123c-4.31-1.165-7.166-3.613-8.57-7.345
		c-0.811-1.961-0.892-5.133-0.241-9.516l-11.715-0.554c-0.825,7.016,0.271,12.934,3.292,17.754c3.082,4.84,7.761,8.109,14.038,9.807
		c6.621,1.79,12.756,1.102,18.405-2.066c5.609-3.144,9.314-8.045,11.115-14.703c1.344-4.968,1.12-9.531-0.672-13.688
		c-1.791-4.157-5.302-8.217-10.53-12.181l-6.415-4.904c-4.664-3.576-6.518-7.129-5.562-10.661c0.692-2.562,2.267-4.417,4.722-5.564
		c2.463-1.178,5.21-1.358,8.24-0.539c2.467,0.667,4.346,1.712,5.638,3.133c1.262,1.28,2.332,3.581,3.21,6.902l10.273-2.852
		C661.261,47.004,655.843,41.198,647.505,38.943z"/>
</g>
<text transform="matrix(0.889 0.4578 -0.4578 0.889 658.5371 120.0488)" fill="#4D4D4D" font-family="'Futura-Medium'" font-size="99.3858">H</text>
<polygon fill="none" stroke="#4D4D4D" stroke-miterlimit="10" points="710.874,62.721 700.821,57.544 666.519,124.159 
	676.571,129.335 692.59,98.228 721.323,113.025 705.305,144.131 715.357,149.308 749.66,82.694 739.608,77.517 726.189,103.576 
	697.455,88.78 "/>
<text transform="matrix(0.9786 0.2057 -0.2057 0.9786 330.8218 316.3721)" fill="#4D4D4D" font-family="'Futura-Medium'" font-size="99.3857">R</text>
<g>
	<defs>
		<rect id="SVGID_13_" width="960" height="560"/>
	</defs>
	<clipPath id="SVGID_14_">
		<use xlink:href="#SVGID_13_"  overflow="visible"/>
	</clipPath>
	<path clip-path="url(#SVGID_14_)" fill="none" stroke="#4D4D4D" stroke-miterlimit="10" d="M363.899,257.619l3.941,0.828
		c10.195,2.143,14.504,6.966,12.927,14.47c-1.684,8.01-7.766,10.913-18.245,8.711l-3.514-0.739L363.899,257.619z M384.298,287.494
		c3.761-3.11,6.187-7.261,7.279-12.454c1.397-6.649,0.147-12.498-3.75-17.549c-3.541-4.545-10.154-7.837-19.842-9.873l-12.965-2.725
		l-15.412,73.325l11.065,2.326l6.309-30.014l1.994,0.419l14.635,34.416l13.535,2.845l-16.133-36.02
		C376.108,292.17,380.536,290.605,384.298,287.494z"/>
</g>
<text transform="matrix(0.9986 0.0528 -0.0528 0.9986 402.0093 331.1904)" fill="#4D4D4D" font-family="'Futura-Medium'" font-size="99.3857">O</text>
<g>
	<defs>
		<rect id="SVGID_15_" width="960" height="560"/>
	</defs>
	<clipPath id="SVGID_16_">
		<use xlink:href="#SVGID_15_"  overflow="visible"/>
	</clipPath>
	<path clip-path="url(#SVGID_16_)" fill="none" stroke="#4D4D4D" stroke-miterlimit="10" d="M429.716,275.014
		c5.65-5.139,12.368-7.503,20.154-7.091c7.818,0.414,14.233,3.472,19.245,9.175c5.045,5.674,7.357,12.496,6.936,20.469
		c-0.417,7.876-3.468,14.415-9.153,19.617c-5.683,5.137-12.449,7.499-20.3,7.083c-7.237-0.383-13.476-3.383-18.719-9.001
		c-5.275-5.62-7.694-12.562-7.257-20.826C421.039,286.564,424.07,280.09,429.716,275.014z M420.399,323.465
		c7.335,7.094,15.833,10.896,25.493,11.407c10.919,0.578,20.439-2.692,28.559-9.812c8.084-7.088,12.413-16.012,12.982-26.77
		c0.565-10.693-2.778-20.054-10.033-28.085c-7.221-8.027-16.162-12.323-26.823-12.887c-10.791-0.571-20.231,2.72-28.319,9.874
		c-8.122,7.151-12.461,15.993-13.018,26.525C408.607,305.703,412.326,315.619,420.399,323.465z"/>
</g>
<text transform="matrix(0.9965 -0.0831 0.0831 0.9965 503.3623 334.6758)" fill="#4D4D4D" font-family="'Futura-Medium'" font-size="99.3857">S</text>
<g>
	<defs>
		<rect id="SVGID_17_" width="960" height="560"/>
	</defs>
	<clipPath id="SVGID_18_">
		<use xlink:href="#SVGID_17_"  overflow="visible"/>
	</clipPath>
	<path clip-path="url(#SVGID_18_)" fill="none" stroke="#4D4D4D" stroke-miterlimit="10" d="M528.017,255.974
		c-6.383,0.532-11.562,2.878-15.531,7.037c-3.975,4.127-5.728,8.993-5.261,14.598c0.693,8.312,6.329,14.201,16.909,17.666
		l7.456,2.396c1.937,0.649,3.619,1.361,5.048,2.134c1.428,0.772,2.61,1.631,3.55,2.575c0.938,0.943,1.66,2.003,2.164,3.177
		c0.504,1.175,0.816,2.487,0.936,3.937c0.302,3.609-0.61,6.687-2.735,9.23c-2.125,2.546-4.945,3.965-8.459,4.258
		c-4.449,0.37-7.969-0.959-10.56-3.99c-1.43-1.568-2.585-4.523-3.466-8.865l-11.203,3.466c1.611,6.878,4.658,12.069,9.138,15.573
		c4.545,3.503,10.058,4.983,16.537,4.443c6.836-0.569,12.37-3.305,16.604-8.206c4.203-4.866,6.019-10.735,5.447-17.607
		c-0.429-5.13-2.191-9.345-5.291-12.644s-7.782-5.922-14.047-7.87l-7.702-2.428c-5.602-1.775-8.556-4.484-8.858-8.13
		c-0.221-2.646,0.628-4.925,2.547-6.84c1.914-1.946,4.437-3.05,7.563-3.311c2.547-0.212,4.669,0.13,6.368,1.027
		c1.622,0.774,3.411,2.573,5.366,5.396l8.69-6.177C543.695,258.872,536.625,255.257,528.017,255.974z"/>
</g>
<text transform="matrix(0.9774 -0.2113 0.2113 0.9774 575.1846 327.877)" fill="#4D4D4D" font-family="'Futura-Medium'" font-size="99.3857">E</text>
<polygon fill="none" stroke="#4D4D4D" stroke-miterlimit="10" points="608.54,244.007 568.127,252.744 583.961,325.979 
	624.373,317.242 622.127,306.855 592.767,313.202 587.475,288.728 615.98,282.564 613.736,272.176 585.229,278.34 581.425,260.742 
	610.785,254.396 "/>
</svg>
